<svg xmlns="http://www.w3.org/2000/svg" width="44" height="50" fill="none" viewBox="0 0 44 50">
    <path fill="#fff" d="M6.508 6.536c0 .298.066.52.066.743.132 2.006.265 4.011.397 6.091.133 1.56.927 2.674 2.251 2.748 1.126.075 2.317-.074 3.443-.297 1.258-.297 1.92-1.56 1.787-3.045-.132-2.006-.264-4.011-.397-6.091 0-.223-.066-.52-.066-.743 4.17-.371 8.276-.743 12.447-1.114 0 .223.066.446.066.669l.397 6.016c.132 1.783 1.126 2.897 2.714 2.897.993 0 2.053-.074 2.98-.372 1.324-.37 1.92-1.56 1.853-3.045-.132-2.228-.33-4.53-.463-6.833.199 0 .331-.075.53-.075 1.39-.148 2.846-.223 4.237-.371 1.258-.074 1.92.52 2.052 1.931.927 12.924 1.788 25.923 2.715 38.847.066 1.189-.331 1.857-1.457 2.08-.33.075-.728.149-1.06.149-12.247 1.114-24.495 2.154-36.743 3.268-.729.074-1.192-.223-1.39-1.04a3.299 3.299 0 0 1-.2-1.114C1.808 34.985.948 22.209.02 9.433c-.133-1.708.397-2.377 1.92-2.525 1.456-.149 2.979-.223 4.568-.372zm14.896 14.41c-5.826.52-11.586 1.04-17.412 1.56-.86.074-.927.149-.86 1.189.529 7.799 1.058 15.524 1.654 23.323.067 1.04.133 1.04.993.966 4.569-.372 9.203-.818 13.771-1.189.464-.074.86-.223 1.192-.594 1.986-2.006 3.906-4.011 5.627-6.388 1.59-2.228 2.913-4.457 2.98-7.502.066-2.526 1.324-3.343 3.376-2.303 1.324.595 2.516 1.486 3.774 2.229 1.125.668 2.052.52 2.714-.669.729-1.188 1.126-2.6.993-4.085-.132-2.303-.33-4.605-.463-6.982-.066-1.114-.133-1.189-1.06-1.04-5.76.445-11.52.965-17.28 1.485zm4.965 24.586c0 .075.067.149.067.149.198 0 .397 0 .595-.074 4.171-.372 8.276-.743 12.447-1.115 1.39-.148 1.721-.594 1.655-2.154-.198-2.896-.397-5.868-.596-8.764 0-.223-.066-.372-.066-.743-4.303 4.976-9.07 8.987-14.102 12.701z"/>
    <path fill="#fff" d="M12.597 7.353c.133 1.412.2 2.823.332 4.309.066.89-.265 1.41-1.06 1.485-.728.074-1.39.149-2.118.149-.795 0-1.126-.372-1.192-1.263-.199-2.897-.397-5.868-.596-8.765-.066-.817.199-1.263.927-1.337a12.941 12.941 0 0 1 2.383-.223c.729 0 1.06.446 1.126 1.189 0 1.56.066 2.97.198 4.456zM28.224 6.017c-.132-1.412-.198-2.823-.264-4.309-.067-.89.264-1.41 1.059-1.485A9.806 9.806 0 0 1 31.138 0c.728 0 1.125.371 1.191 1.188l.596 8.69c.066.892-.265 1.338-1.06 1.487-.661.074-1.39.148-2.052.222-.86 0-1.258-.371-1.324-1.337-.132-1.41-.198-2.822-.265-4.233zM9.485 26.294c1.986-.148 3.906-.371 5.892-.52.132 2.229.331 4.383.463 6.537-1.986.223-3.906.371-5.892.52-.198-2.154-.33-4.308-.463-6.537zM10.613 43.081c-.133-2.228-.331-4.382-.464-6.61 1.92-.15 3.84-.372 5.826-.52.133 2.154.331 4.382.464 6.61-1.854.149-3.774.297-5.826.52zM19.283 25.403c1.92-.149 3.84-.371 5.826-.52.133 2.228.332 4.382.464 6.61-1.92.15-3.906.372-5.826.52-.133-2.228-.265-4.382-.464-6.61zM20.012 35.505c1.853-.149 3.707-.297 5.495-.446.132 0 .33.074.33.149.067.594.332 1.262-.132 1.857-1.125 1.56-2.317 3.194-3.443 4.753-.132.149-.33.223-.463.298-.397.074-.86.074-1.324.148-.132-2.228-.265-4.457-.463-6.76zM28.953 27.557c-.066-.966-.132-1.931-.198-2.971 1.92-.149 3.906-.371 5.892-.52.066 1.263.199 2.6.265 3.937-1.92-.892-3.84-2.229-5.959-.446z"/>
</svg>
