<svg xmlns="http://www.w3.org/2000/svg" width="134" height="135" fill="none" viewBox="0 0 134 135">
    <path fill="#fff" d="M12.43 134.538c-7.284 0-11.476-3.792-12.274-11.177-1.197-11.775 4.59-19.859 14.07-25.347 32.234-18.362 65.365-19.959 98.796-3.393 5.887 2.894 11.376 7.285 15.967 11.975 5.788 5.888 5.987 13.672 3.492 21.256-1.596 4.79-5.488 6.886-10.079 6.886-11.875.1-94.004-.2-109.971-.2zM34.585 31.352C35.583 10.096 48.555-.482 68.814.017 89.87.516 98.95 14.387 98.95 33.248c0 20.358-14.67 31.435-31.235 31.634-19.26.1-32.433-11.576-33.131-33.53z"/>
</svg>
